<svg width="79" height="77" viewBox="0 0 79 77" fill="none" xmlns="http://www.w3.org/2000/svg">
<ellipse cx="39.348" cy="38.5" rx="39.348" ry="38.5" fill="#EAFFEA"/>
<g clip-path="url(#clip0)">
<path d="M47.8282 61.3118C45.3859 57.9197 43.475 51.3617 43.2489 48.0827L31.6311 43.0793L26.7974 61.3118H47.8282Z" fill="#F9C9B6" stroke="black" stroke-width="0.678414"/>
<mask id="mask0" mask-type="alpha" maskUnits="userSpaceOnUse" x="26" y="43" width="125" height="118">
<path d="M150.797 160.58C136.397 140.58 125.131 91.913 123.797 72.5797L55.2974 43.0793L26.7974 160.58H150.797Z" fill="#AC6651"/>
</mask>
<g mask="url(#mask0)">
<g style="mix-blend-mode:multiply">
<ellipse cx="42.7401" cy="42.7401" rx="10.0066" ry="9.15859" fill="black"/>
</g>
</g>
<mask id="path-5-inside-1" fill="white">
<path fill-rule="evenodd" clip-rule="evenodd" d="M52.8972 32.7198C52.8925 32.7 52.8878 32.6803 52.8831 32.6605C52.8784 32.6408 52.8736 32.621 52.8688 32.6013L50.088 20.9951C50.0853 20.9834 50.0825 20.9717 50.0797 20.96C50.0769 20.9484 50.0741 20.9367 50.0712 20.925L50.059 20.8741L50.0588 20.8741C48.3258 13.845 41.2403 9.52286 34.1892 11.2123C27.138 12.9016 22.7805 19.9654 24.4211 27.0167L24.4207 27.0168L27.3025 39.0447L27.3049 39.0441C29.1032 45.9817 36.1361 50.228 43.1353 48.551C50.1345 46.8741 54.4796 39.9017 52.9387 32.9025L52.9408 32.902L52.8972 32.7198Z"/>
</mask>
<path fill-rule="evenodd" clip-rule="evenodd" d="M52.8972 32.7198C52.8925 32.7 52.8878 32.6803 52.8831 32.6605C52.8784 32.6408 52.8736 32.621 52.8688 32.6013L50.088 20.9951C50.0853 20.9834 50.0825 20.9717 50.0797 20.96C50.0769 20.9484 50.0741 20.9367 50.0712 20.925L50.059 20.8741L50.0588 20.8741C48.3258 13.845 41.2403 9.52286 34.1892 11.2123C27.138 12.9016 22.7805 19.9654 24.4211 27.0167L24.4207 27.0168L27.3025 39.0447L27.3049 39.0441C29.1032 45.9817 36.1361 50.228 43.1353 48.551C50.1345 46.8741 54.4796 39.9017 52.9387 32.9025L52.9408 32.902L52.8972 32.7198Z" fill="#F9C9B6"/>
<path d="M52.8972 32.7198L52.2367 32.8749L52.2374 32.8779L52.8972 32.7198ZM52.8831 32.6605L52.2233 32.8186L52.2234 32.8186L52.8831 32.6605ZM52.8688 32.6013L52.209 32.7594L52.2098 32.7624L52.8688 32.6013ZM50.088 20.9951L49.4278 21.1514L49.4283 21.1532L50.088 20.9951ZM50.0712 20.925L49.4115 21.0831L49.4119 21.0848L50.0712 20.925ZM50.059 20.8741L50.7188 20.716L50.5607 20.0561L49.9008 20.2144L50.059 20.8741ZM50.0588 20.8741L49.4001 21.0365L49.5615 21.6911L50.217 21.5338L50.0588 20.8741ZM34.1892 11.2123L34.0311 10.5525L34.1892 11.2123ZM24.4211 27.0167L24.5781 27.6767L25.2348 27.5204L25.0818 26.863L24.4211 27.0167ZM24.4207 27.0168L24.2637 26.3568L23.6027 26.5141L23.761 27.1749L24.4207 27.0168ZM27.3025 39.0447L26.6428 39.2028L26.8009 39.8627L27.4608 39.7044L27.3025 39.0447ZM27.3049 39.0441L27.9616 38.8739L27.7944 38.2291L27.1466 38.3844L27.3049 39.0441ZM43.1353 48.551L43.2934 49.2108H43.2934L43.1353 48.551ZM52.9387 32.9025L52.7807 32.2428L52.133 32.3979L52.2762 33.0484L52.9387 32.9025ZM52.9408 32.902L53.0988 33.5618L53.7586 33.4037L53.6006 32.7439L52.9408 32.902ZM53.5576 32.5647C53.5527 32.544 53.5478 32.5232 53.5428 32.5025L52.2234 32.8186C52.2278 32.8373 52.2323 32.8561 52.2367 32.8749L53.5576 32.5647ZM53.5428 32.5025C53.5379 32.4817 53.5328 32.461 53.5278 32.4403L52.2098 32.7624C52.2143 32.7811 52.2189 32.7999 52.2233 32.8186L53.5428 32.5025ZM49.4283 21.1532L52.209 32.7594L53.5285 32.4433L50.7478 20.837L49.4283 21.1532ZM50.7482 20.8388C50.7453 20.8265 50.7423 20.8142 50.7394 20.8019L49.4199 21.1182C49.4226 21.1292 49.4252 21.1403 49.4278 21.1514L50.7482 20.8388ZM50.7394 20.8019C50.7365 20.7897 50.7335 20.7775 50.7305 20.7652L49.4119 21.0848C49.4146 21.0959 49.4173 21.107 49.4199 21.1182L50.7394 20.8019ZM49.3993 21.0321L49.4115 21.0831L50.731 20.7669L50.7188 20.716L49.3993 21.0321ZM50.217 21.5338L50.2172 21.5338L49.9008 20.2144L49.9006 20.2144L50.217 21.5338ZM50.7175 20.7117C48.8952 13.3207 41.4452 8.77617 34.0311 10.5525L34.3472 11.872C41.0355 10.2696 47.7563 14.3692 49.4001 21.0365L50.7175 20.7117ZM34.0311 10.5525C26.617 12.3289 22.0353 19.7561 23.7603 27.1704L25.0818 26.863C23.5257 20.1746 27.659 13.4744 34.3472 11.872L34.0311 10.5525ZM24.5778 27.6768L24.5781 27.6767L24.264 26.3567L24.2637 26.3568L24.5778 27.6768ZM27.9623 38.8866L25.0805 26.8587L23.761 27.1749L26.6428 39.2028L27.9623 38.8866ZM27.1466 38.3844L27.1443 38.385L27.4608 39.7044L27.4631 39.7038L27.1466 38.3844ZM26.6482 39.2144C28.5391 46.5092 35.9339 50.974 43.2934 49.2108L42.9772 47.8913C36.3384 49.4819 29.6673 45.4542 27.9616 38.8739L26.6482 39.2144ZM43.2934 49.2108C50.6528 47.4475 55.2215 40.1164 53.6013 32.7566L52.2762 33.0484C53.7377 39.6871 49.6161 46.3007 42.9772 47.8913L43.2934 49.2108ZM52.7828 32.2423L52.7807 32.2428L53.0967 33.5623L53.0988 33.5618L52.7828 32.2423ZM52.2374 32.8779L52.2811 33.0601L53.6006 32.7439L53.5569 32.5617L52.2374 32.8779Z" fill="black" mask="url(#path-5-inside-1)"/>
</g>
<path d="M47.3059 38.7256C47.277 38.3749 46.9185 38.1797 46.6147 38.2994C45.8975 38.582 43.5248 39.4808 41.8518 39.7109C40.0163 39.9634 37.2365 39.6568 36.4319 39.5569C36.1047 39.5162 35.813 39.7975 35.8695 40.1392C35.98 40.8079 36.2077 41.4525 36.5426 42.0432C36.9161 42.7019 37.4157 43.2806 38.0128 43.7463C38.61 44.212 39.293 44.5555 40.0229 44.7572C40.7529 44.9589 41.5154 45.0148 42.2669 44.9219C43.0184 44.8289 43.7443 44.5888 44.4031 44.2153C45.0618 43.8418 45.6405 43.3422 46.1062 42.745C46.5719 42.1478 46.9154 41.4648 47.1171 40.7349C47.2978 40.0808 47.3615 39.4006 47.3059 38.7256Z" fill="#171921" stroke="#171921" stroke-width="0.678414"/>
<mask id="mask1" mask-type="alpha" maskUnits="userSpaceOnUse" x="36" y="38" width="11" height="7">
<path d="M46.9451 38.5326C47.0326 39.2399 46.9799 39.9575 46.7901 40.6445C46.6003 41.3315 46.277 41.9744 45.8387 42.5364C45.4004 43.0984 44.8557 43.5687 44.2357 43.9202C43.6157 44.2717 42.9326 44.4977 42.2252 44.5852C41.5179 44.6727 40.8003 44.6201 40.1133 44.4302C39.4263 44.2404 38.7835 43.9171 38.2214 43.4788C37.6594 43.0405 37.1892 42.4959 36.8376 41.8759C36.4861 41.2559 36.2601 40.5727 36.1726 39.8654L46.9451 38.5326Z" fill="#171921"/>
</mask>
<g mask="url(#mask1)">
<circle cx="42.3198" cy="45.3375" r="3.64648" transform="rotate(-7.05286 42.3198 45.3375)" fill="#FC909F"/>
</g>
<path d="M51.5897 12.6179C50.1783 19.3846 33.4968 20.3348 30.1349 20.3348C21.3117 21.34 25.5467 31.93 27.1668 37.2104C25.8948 37.38 26.0644 38.9064 21.1459 26.7798C17.2111 17.0784 28.3551 11.1656 36.6344 9.15849C44.9138 7.15136 48.0827 4.3252 48.0827 4.3252C51.5897 5.76649 52.4274 8.602 51.5897 12.6179Z" fill="#77311D"/>
<path d="M50.7343 25.0922L48.0515 16.0287L49.754 14.4781C51.5782 20.7683 51.6616 24.4209 50.7343 25.0922Z" fill="#77311D"/>
<path d="M30.5287 32.7335C29.5789 28.1203 27.1932 28.9457 25.6102 29.1719L23.9142 21.7093L30.7974 20.2686C30.925 20.2279 31.0614 20.1991 31.2071 20.1829L30.7974 20.2686C27.7189 21.2512 29.8429 29.1372 32.3944 32.3943L30.5287 32.7335Z" fill="#77311D"/>
<path d="M21.1987 15.3259C22.6989 14.5705 24.4706 15.0078 25.169 15.3208L23.1726 17.8446C23.6874 17.0209 22.0712 15.8223 21.1987 15.3259Z" fill="#77311D"/>
<path d="M18.6564 18.2323C20.6238 17.079 22.529 17.4691 23.2357 17.8083L22.4725 20.4372C22.2689 19.0126 19.8436 18.3737 18.6564 18.2323Z" fill="#77311D"/>
<circle cx="34.979" cy="25.8205" r="2.03524" transform="rotate(-6.27568 34.979 25.8205)" fill="#D2EFF3"/>
<ellipse cx="35.1978" cy="27.3745" rx="1.52643" ry="2.28965" transform="rotate(-6.77646 35.1978 27.3745)" fill="black"/>
<circle cx="45.7962" cy="24.3571" r="2.03524" transform="rotate(-6.27568 45.7962 24.3571)" fill="#D2EFF3"/>
<ellipse cx="46.0525" cy="25.6785" rx="1.52643" ry="2.28965" transform="rotate(-6.27568 46.0525 25.6785)" fill="black"/>
<path d="M43.588 20.7278C44.5491 20.2756 46.8105 19.8629 48.1673 21.8303" stroke="black" stroke-width="0.678414" stroke-linecap="round"/>
<path d="M30.7964 25.02C31.1476 24.0175 32.4385 22.1155 34.7927 22.527" stroke="black" stroke-width="0.678414" stroke-linecap="round"/>
<path d="M41.6377 30.1895C41.6377 32.5639 42.8249 34.4295 42.8249 34.4295C42.8249 34.4295 42.2313 35.4472 40.5353 35.108" stroke="#171921" stroke-width="0.678414"/>
<path d="M38.2915 59.968L38.5 59.7004L38.2916 59.968L38.5836 60.1954L38.7847 59.8848L38.7847 59.8847L38.7851 59.8842L38.7867 59.8818L38.7936 59.8712L38.8222 59.8281C38.8477 59.7899 38.8859 59.7334 38.9358 59.6613C39.0357 59.517 39.1823 59.3106 39.368 59.0637C39.7401 58.5694 40.2666 57.9165 40.8866 57.2781C41.5082 56.6381 42.2139 56.023 42.9432 55.5949C43.6753 55.1651 44.3983 54.9428 45.0692 55.0333C52.267 56.0038 57.5637 59.1919 61.002 63.9406H14.6494C17.4139 58.9641 21.3459 55.7965 27.7208 54.343C27.9925 54.2811 28.3618 54.2999 28.8236 54.4073C29.2807 54.5136 29.8018 54.7003 30.3638 54.9474C31.4877 55.4414 32.7424 56.1618 33.9214 56.9081C35.0986 57.6532 36.1918 58.4186 36.9912 58.9982C37.3907 59.2878 37.7163 59.5307 37.9419 59.701C38.0546 59.7861 38.1424 59.8531 38.2017 59.8987L38.2691 59.9506L38.2861 59.9638L38.2903 59.967L38.2913 59.9678L38.2915 59.968Z" fill="#6BD9E9" stroke="black" stroke-width="0.678414"/>
<path d="M25.7141 54.7963L26.5904 51.5345C26.6258 51.4024 26.7967 51.3651 26.889 51.466C29.4099 54.2245 32.591 54.1164 33.6469 53.9898C33.7902 53.9726 33.9024 54.1294 33.8351 54.2571L31.6036 58.4892C31.5694 58.5541 31.4994 58.5898 31.4276 58.5748C30.7579 58.4353 27.4211 57.6197 25.7337 54.9289C25.709 54.8895 25.702 54.8412 25.7141 54.7963Z" fill="#D2EFF3" stroke="black" stroke-width="0.678414"/>
<path d="M47.8612 54.7788L45.8971 51.4745C45.8304 51.3623 45.6661 51.3641 45.5951 51.4736C44.6221 52.9722 42.9439 53.6625 42.3571 53.8665C42.2515 53.9031 42.2032 54.0286 42.2601 54.1248L44.5502 57.9942C44.5844 58.052 44.6489 58.0833 44.7135 58.0649C45.0755 57.9618 46.3179 57.4422 47.859 54.9551C47.8921 54.9017 47.8933 54.8328 47.8612 54.7788Z" fill="#D2EFF3" stroke="black" stroke-width="0.678414"/>
<path d="M35.3623 57.75L33.8359 54.1035L32.6487 56.6476L35.3623 57.75Z" fill="black" stroke="black" stroke-width="0.678414" stroke-linejoin="round"/>
<path d="M40.7048 57.5804L42.2312 53.934L43.4185 56.478L40.7048 57.5804Z" fill="black" stroke="black" stroke-width="0.678414" stroke-linejoin="round"/>
<path d="M28.7478 50.8811L26.7125 51.3899L28.4086 52.4923L28.7478 50.8811Z" fill="black" stroke="black" stroke-width="0.678414" stroke-linejoin="round"/>
<path d="M43.9273 50.8811L45.793 51.3899L44.6057 52.4923L43.9273 50.8811Z" fill="black" stroke="black" stroke-width="0.678414" stroke-linejoin="round"/>
<path d="M30.9526 27.391L25.1013 28.5146" stroke="black" stroke-width="0.678414" stroke-linecap="round"/>
<path d="M30.2722 24.5823C30.1246 23.9957 30.5184 23.4106 31.1174 23.3264L37.6839 22.4036C38.2404 22.3254 38.755 22.7131 38.8332 23.2697L39.7774 29.9878C39.8556 30.5443 39.4679 31.0589 38.9113 31.1371L33.0647 31.9588C32.5497 32.0312 32.063 31.7036 31.9361 31.1993L30.2722 24.5823Z" stroke="black" stroke-width="0.678414"/>
<path d="M51.0084 21.7032C50.9885 21.0986 50.4487 20.6447 49.8497 20.7289L43.2832 21.6518C42.7266 21.73 42.3389 22.2446 42.4171 22.8011L43.3613 29.5192C43.4395 30.0758 43.9541 30.4635 44.5106 30.3853L50.3573 29.5636C50.8723 29.4913 51.2498 29.0422 51.2327 28.5224L51.0084 21.7032Z" stroke="black" stroke-width="0.678414"/>
<path d="M39.2632 26.4794L42.9945 25.8857" stroke="black" stroke-width="0.678414"/>
<path d="M27.8998 29.3711C27.5047 29.241 27.0781 29.1718 26.6414 29.1718C24.8617 29.1718 23.4189 30.2742 23.5885 32.3094C23.7652 34.4295 25.0313 35.1927 26.811 35.1927C27.009 35.1927 27.2029 35.1753 27.391 35.142C27.5963 35.1056 27.7949 35.0504 27.9846 34.9781" stroke="#171921" stroke-width="1.35683"/>
<path d="M28.0694 34.9444C27.6828 35.1043 27.2575 35.1927 26.811 35.1927C25.0313 35.1927 23.7652 34.4295 23.5885 32.3094C23.4189 30.2742 24.8617 29.1718 26.6414 29.1718C27.1735 29.1718 27.6907 29.2746 28.1542 29.4651L28.0694 34.9444Z" fill="#F9C9B6"/>
<path d="M27.391 30.6135C26.7126 30.3025 25.2201 30.1386 24.6774 31.9703" stroke="#171921" stroke-width="0.678414"/>
<path d="M25.6101 30.6982C25.9776 31.0092 26.6786 31.9703 26.5429 33.3271" stroke="#171921" stroke-width="0.678414"/>
<defs>
<clipPath id="clip0">
<rect width="33.9207" height="54.2731" fill="white" transform="translate(21.7092 7.12329)"/>
</clipPath>
</defs>
</svg>
