<svg width="20" height="20" viewBox="0 0 20 20" fill="none" xmlns="http://www.w3.org/2000/svg">
<path d="M3.68333 17.1492C3.44956 17.1488 3.22672 17.0502 3.06916 16.8775C2.9087 16.7062 2.82896 16.4746 2.84999 16.2408L3.05416 13.9958L12.4858 4.5675L15.4333 7.51417L6.00416 16.9417L3.75916 17.1458C3.73333 17.1483 3.70749 17.1492 3.68333 17.1492ZM16.0217 6.925L13.075 3.97834L14.8425 2.21084C14.9988 2.05436 15.2109 1.96643 15.4321 1.96643C15.6532 1.96643 15.8654 2.05436 16.0217 2.21084L17.7892 3.97834C17.9456 4.13464 18.0336 4.34675 18.0336 4.56792C18.0336 4.78909 17.9456 5.0012 17.7892 5.1575L16.0225 6.92417L16.0217 6.925Z" fill="#334238"/>
</svg>
