<svg width="12" height="25" viewBox="0 0 12 25" fill="none" xmlns="http://www.w3.org/2000/svg">
<path d="M9.21516 8.86392C8.23587 8.86392 7.442 8.07005 7.442 7.09076V6.79592C7.43716 6.55482 7.45154 6.31373 7.485 6.07492C7.51868 5.89688 7.58661 5.72707 7.68501 5.57492C7.8004 5.39978 7.97995 5.27697 8.18501 5.23292C8.47982 5.16127 8.78266 5.12799 9.08601 5.13392C10.2276 5.13392 11.156 4.20849 11.156 3.06692C11.156 1.92534 10.2306 0.999917 9.08901 0.999917H7.85001C7.10602 0.928213 6.35526 1.01229 5.64556 1.24679C5.34073 1.34751 5.04635 1.47504 4.76572 1.62744C4.02035 2.03224 3.41856 2.67325 3.04554 3.43501C2.60224 4.3403 2.40187 5.35364 2.47601 6.37392V7.62591C2.47601 8.30964 1.92173 8.86392 1.238 8.86392C0.554273 8.86392 0 9.41819 0 10.1019V11.7619C0 12.4456 0.554273 12.9999 1.238 12.9999C1.92173 12.9999 2.47601 13.5542 2.47601 14.2379V22.5169C2.47601 23.8882 3.58768 24.9999 4.959 24.9999C6.33033 24.9999 7.442 23.8882 7.442 22.5169V14.7402C7.442 13.7791 8.22115 12.9999 9.18228 12.9999C10.0725 12.9999 10.8191 12.3281 10.9129 11.4429L10.9785 10.8238C11.0894 9.77649 10.2683 8.86392 9.21516 8.86392Z" fill="#1B1B1B"/>
</svg>
