<svg width="23" height="23" viewBox="0 0 23 23" fill="none" xmlns="http://www.w3.org/2000/svg">
<path d="M11.6658 22.0318C8.66077 22.0318 8.30652 22.0159 7.13384 21.9646C6.21936 21.9345 5.31671 21.7486 4.46477 21.4149C2.99075 20.8412 1.82518 19.6752 1.25211 18.201C0.931216 17.346 0.758138 16.4426 0.740281 15.5295C0.671875 14.3592 0.671875 13.9757 0.671875 10.9939C0.671875 7.98034 0.687755 7.62854 0.740281 6.46197C0.758528 5.55011 0.931601 4.64798 1.25211 3.79411C1.82456 2.31791 2.99202 1.1509 4.46843 0.579012C5.32186 0.256771 6.22421 0.0832412 7.13628 0.0659634C8.30286 0 8.68642 0 11.6658 0C14.6952 0 15.0433 0.0158801 16.1977 0.0659634C17.1121 0.0833906 18.0169 0.256902 18.8729 0.579012C20.3489 1.15155 21.5161 2.31834 22.0892 3.79411C22.4155 4.66043 22.5895 5.57665 22.6035 6.50228C22.6719 7.67251 22.6719 8.05486 22.6719 11.0354C22.6719 14.016 22.6548 14.4069 22.6035 15.5637C22.5853 16.4776 22.4118 17.3819 22.0904 18.2376C21.5159 19.7129 20.3486 20.8793 18.8729 21.4527C18.0181 21.773 17.1152 21.9461 16.2026 21.9646C15.036 22.0318 14.6537 22.0318 11.6658 22.0318ZM11.6242 1.9337C8.63634 1.9337 8.32607 1.94836 7.15949 2.00089C6.46319 2.01011 5.77363 2.13861 5.12074 2.38079C4.15664 2.74971 3.39375 3.50948 3.0209 4.47207C2.77685 5.13207 2.64834 5.82918 2.641 6.53281C2.57626 7.71649 2.57626 8.02676 2.57626 10.9939C2.57626 13.9256 2.58726 14.2811 2.641 15.4574C2.65194 16.1539 2.78038 16.8436 3.0209 17.4974C3.3943 18.4593 4.15705 19.2185 5.12074 19.5875C5.77318 19.8312 6.46303 19.9598 7.15949 19.9674C8.34195 20.0358 8.65344 20.0358 11.6242 20.0358C14.6207 20.0358 14.931 20.0211 16.0878 19.9674C16.7845 19.9589 17.4746 19.8304 18.1277 19.5875C19.086 19.2154 19.8439 18.4579 20.2166 17.4998C20.4601 16.8393 20.5886 16.1419 20.5965 15.4379H20.6099C20.6624 14.2701 20.6624 13.9586 20.6624 10.9743C20.6624 7.99012 20.649 7.67618 20.5965 6.50961C20.5855 5.81388 20.4571 5.125 20.2166 4.47207C19.8448 3.51264 19.0867 2.75372 18.1277 2.38079C17.4748 2.13739 16.7846 2.00885 16.0878 2.00089C14.9065 1.9337 14.5975 1.9337 11.6242 1.9337ZM11.6658 16.6362C9.38147 16.6377 7.32125 15.2629 6.44594 13.1529C5.57064 11.043 6.05266 8.61351 7.6672 6.99756C9.28175 5.38162 11.7108 4.8975 13.8215 5.77098C15.9322 6.64446 17.3088 8.70348 17.3093 10.9878C17.3059 14.104 14.782 16.6301 11.6658 16.6362ZM11.6658 7.32071C9.64185 7.32071 8.00114 8.96142 8.00114 10.9853C8.00114 13.0093 9.64185 14.65 11.6658 14.65C13.6897 14.65 15.3304 13.0093 15.3304 10.9853C15.3257 8.96337 13.6877 7.32541 11.6658 7.32071ZM17.5292 6.44975C16.8029 6.44705 16.2159 5.8568 16.2172 5.13049C16.2186 4.40419 16.8078 3.81611 17.5341 3.81611C18.2604 3.81611 18.8495 4.40418 18.8509 5.13048C18.8512 5.4809 18.712 5.81702 18.464 6.06457C18.216 6.31212 17.8796 6.45072 17.5292 6.44975Z" fill="#1B1B1B"/>
</svg>
