<svg width="20" height="20" viewBox="0 0 20 20" fill="none" xmlns="http://www.w3.org/2000/svg">
<path fill-rule="evenodd" clip-rule="evenodd" d="M6.58431 14.3326L1.98741 19L1 18.0243L5.59689 13.3569L6.58431 14.3326Z" fill="#334238"/>
<path d="M10.6411 1L19 9.43944L15.4289 9.03903L15.0639 9.16224L14.8205 9.40862L10.6046 13.69L10.118 14.1828L10.3613 14.922L10.9697 16.6468C11.213 17.3861 11.213 18.2485 10.848 18.8645L1.11426 9.00824C1.47927 8.88504 1.96596 8.76182 2.33097 8.76182C2.69599 8.76182 3.061 8.76182 3.30435 8.88503L5.85945 9.74743L6.34613 9.25462L10.562 4.97332L10.8054 4.7269L10.9271 4.3573L10.6411 1Z" fill="#334238"/>
</svg>
