<svg width="100" height="100" viewBox="0 0 100 100" fill="none" xmlns="http://www.w3.org/2000/svg">
<circle cx="50" cy="50" r="50" fill="#0FA9A9"/>
<path d="M30.5417 75.875H25.125V73.1667C25.1369 62.7012 33.6179 54.2203 44.0833 54.2084H54.9167C65.3821 54.2203 73.8631 62.7012 73.875 73.1667V75.875H68.4583V73.1667C68.4494 65.6915 62.3918 59.634 54.9167 59.625H44.0833C36.6082 59.634 30.5506 65.6915 30.5417 73.1667V75.875ZM49.5 51.5C42.0211 51.5 35.9583 45.4372 35.9583 37.9584C35.9583 30.4795 42.0211 24.4167 49.5 24.4167C56.9789 24.4167 63.0417 30.4795 63.0417 37.9584C63.0327 45.4335 56.9751 51.4911 49.5 51.5ZM49.5 29.8334C45.0127 29.8334 41.375 33.471 41.375 37.9584C41.375 42.4457 45.0127 46.0834 49.5 46.0834C53.9873 46.0834 57.625 42.4457 57.625 37.9584C57.625 33.471 53.9873 29.8334 49.5 29.8334Z" fill="#FDFDFD"/>
</svg>
