<svg width="26" height="30" viewBox="0 0 26 30" fill="none" xmlns="http://www.w3.org/2000/svg">
<path d="M24.659 15.0461C24.5236 14.4306 24.201 13.8722 23.7355 13.4474C23.2699 13.0227 22.6842 12.7526 22.059 12.6741C20.0663 12.4575 17.0603 12.3491 13.041 12.3491C9.02163 12.3491 6.02163 12.4575 4.04097 12.6741C3.41618 12.7434 2.82994 13.0108 2.36797 13.4371C1.89544 13.8631 1.56609 14.4248 1.42496 15.0451C1.09224 16.9216 0.950843 18.8271 1.00296 20.7321C0.946753 22.6373 1.08818 24.5431 1.42496 26.4191C1.55534 27.0417 1.88201 27.606 2.35696 28.0291C2.81594 28.4528 3.40043 28.7153 4.02197 28.7771C7.02038 29.0467 10.0308 29.1605 13.041 29.1181C16.0508 29.1607 19.0609 29.0469 22.059 28.7771C22.6786 28.7161 23.2611 28.4533 23.717 28.0291C24.1898 27.6034 24.5192 27.0416 24.66 26.4211C24.9931 24.5447 25.1348 22.6392 25.083 20.7341C25.1382 18.8286 24.9961 16.9224 24.659 15.0461ZM7.87696 16.6881C7.87696 16.6876 7.87652 16.6871 7.87597 16.6871H7.00646C6.5257 16.6871 6.13596 17.0769 6.13596 17.5576V25.1166C6.13596 25.5654 5.77219 25.9291 5.32346 25.9291C4.87473 25.9291 4.51096 25.5654 4.51096 25.1166V17.5411C4.51096 17.07 4.12906 16.6881 3.65796 16.6881H3.56897C3.14702 16.6881 2.80497 16.3461 2.80497 15.9241C2.80497 15.5022 3.14702 15.1601 3.56897 15.1601H6.34896C7.19285 15.1601 7.87696 15.8442 7.87696 16.6881ZM12.261 25.9291H11.0262C10.9095 25.9291 10.815 25.8346 10.815 25.7179C10.815 25.5117 10.5209 25.4065 10.3601 25.5357C10.2752 25.6038 10.1855 25.6663 10.0916 25.7224C9.80619 25.8931 9.48812 26.002 9.15796 26.0421C8.95548 26.0678 8.75039 26.0219 8.57818 25.9123C8.40598 25.8027 8.27749 25.6364 8.21497 25.4421C8.113 25.0551 8.06919 24.655 8.08496 24.2551V18.6291C8.08496 18.2298 8.40866 17.9061 8.80796 17.9061C9.20727 17.9061 9.53096 18.2298 9.53096 18.6291V23.8201C9.52426 24.0096 9.5296 24.1993 9.54696 24.3881C9.57963 24.6161 9.6933 24.7298 9.88797 24.7291C10.6627 24.7291 10.814 23.6306 10.814 22.8559V18.6291C10.814 18.2298 11.1377 17.9061 11.537 17.9061C11.9363 17.9061 12.26 18.2298 12.26 18.6291V25.9281C12.26 25.9287 12.2604 25.9291 12.261 25.9291ZM17.7865 23.5276C17.7855 23.5286 17.785 23.5299 17.7851 23.5313C17.81 24.0764 17.7609 24.6223 17.639 25.1541C17.5839 25.4157 17.4376 25.6492 17.2262 25.8128C17.0148 25.9765 16.752 26.0595 16.485 26.0471C16.1821 26.0217 15.8889 25.9282 15.6272 25.7736C15.5383 25.721 15.4538 25.6619 15.3743 25.5967C15.2358 25.4831 14.974 25.5739 14.974 25.7531C14.974 25.8531 14.8929 25.9341 14.793 25.9341H14.2515C13.8524 25.9341 13.529 25.6106 13.529 25.2116V15.8841C13.529 15.4843 13.8531 15.1601 14.253 15.1601C14.6528 15.1601 14.977 15.4843 14.977 15.8841V17.7804C14.977 18.0497 15.3963 18.2046 15.6291 18.0693C15.8913 17.9169 16.1853 17.8275 16.488 17.8081C16.7573 17.7971 17.0217 17.8828 17.2333 18.0497C17.445 18.2166 17.5899 18.4537 17.642 18.7181C17.7654 19.2447 17.8145 19.7859 17.788 20.3261V23.5241C17.788 23.5254 17.7874 23.5266 17.7865 23.5276ZM23.277 22.1971C23.277 22.1966 23.2765 22.1961 23.276 22.1961H21.783C21.002 22.1961 20.369 22.8292 20.369 23.6101C20.369 24.3581 20.618 24.7318 21.116 24.7311C21.2795 24.7388 21.4394 24.6816 21.5611 24.5721C21.6828 24.4626 21.7564 24.3096 21.766 24.1461C21.7736 24.0656 21.7801 23.9849 21.7853 23.9041C21.8118 23.4946 22.1379 23.1551 22.5484 23.1551H23.066C23.1825 23.1551 23.277 23.2496 23.277 23.3661C23.2866 23.6808 23.2756 23.9958 23.244 24.3091C23.1761 24.8096 22.9224 25.2662 22.5334 25.5882C22.1443 25.9102 21.6483 26.074 21.144 26.0471C20.8062 26.0616 20.47 25.9939 20.1643 25.8496C19.8586 25.7054 19.5925 25.489 19.389 25.2191C19.0309 24.6588 18.8655 23.997 18.918 23.3341V20.5221C18.8681 19.8614 19.0288 19.2019 19.377 18.6381C19.5852 18.3796 19.8488 18.171 20.1482 18.0276C20.4477 17.8843 20.7755 17.8099 21.1075 17.8099C21.4395 17.8099 21.7672 17.8843 22.0667 18.0276C22.6624 18.3127 23.0564 18.912 23.2044 19.5556C23.2768 19.8708 23.3019 20.1969 23.277 20.5231V22.1971Z" fill="#1B1B1B"/>
<path d="M15.706 19.125C15.5664 19.1327 15.4297 19.1683 15.3042 19.2298C15.062 19.3484 14.975 19.6314 14.975 19.9011V23.9562C14.975 24.2256 15.0621 24.5085 15.3042 24.6267C15.4298 24.688 15.5664 24.7235 15.706 24.731C16.1287 24.731 16.34 24.368 16.34 23.642V20.214C16.34 19.488 16.1287 19.125 15.706 19.125ZM21.101 19.1275C21.101 19.1261 21.0998 19.125 21.0985 19.125C20.6128 19.1263 20.37 19.4929 20.37 20.225V20.241C20.37 20.6447 20.6973 20.972 21.101 20.972C21.5047 20.972 21.832 20.6447 21.832 20.241V20.23C21.832 19.4946 21.5892 19.1279 21.1035 19.13C21.1021 19.13 21.101 19.1289 21.101 19.1275ZM6.92977 6.48355C6.93089 6.48327 6.93198 6.48412 6.93198 6.48528V10.0705C6.93198 10.5192 7.29575 10.883 7.74448 10.883C8.19322 10.883 8.55698 10.5192 8.55698 10.0705V7.05122C8.55698 6.67447 8.61255 6.29977 8.72188 5.93923L10.2175 1.0074C10.3696 0.505945 9.99428 0 9.47028 0C9.11401 0 8.80291 0.241164 8.71411 0.586192L8.67802 0.726434C8.43037 1.68868 7.06686 1.69733 6.80702 0.738303L6.76742 0.59215C6.67273 0.242664 6.35557 0 5.99348 0C5.44617 0 5.06 0.536058 5.23807 1.05358C5.45175 1.67456 5.68472 2.33636 5.93698 3.039C6.34168 4.16398 6.67259 5.31416 6.92759 6.4822C6.92781 6.48319 6.92879 6.4838 6.92977 6.48355ZM12.7 11C13.0334 11.0165 13.3656 10.9493 13.6664 10.8045C13.9672 10.6597 14.2269 10.4419 14.422 10.171C14.7729 9.59622 14.9335 8.92538 14.881 8.254V5.411C14.9331 4.74556 14.7739 4.08064 14.426 3.511C14.2211 3.25261 13.9605 3.04387 13.6636 2.90038C13.3667 2.75688 13.0412 2.68235 12.7115 2.68235C12.3817 2.68235 12.0563 2.75688 11.7594 2.90038C11.4625 3.04387 11.2019 3.25261 10.997 3.511C10.6491 4.08064 10.4898 4.74556 10.542 5.411V8.255C10.4914 8.92602 10.6504 9.59619 10.997 10.173C11.1909 10.44 11.4477 10.6552 11.7445 10.7994C12.0414 10.9437 12.3692 11.0126 12.699 11H12.7ZM12 5.118C12 4.37067 12.2333 3.997 12.7 3.997C13.1666 3.997 13.4 4.37067 13.4 5.118V8.531C13.4 9.289 13.1666 9.668 12.7 9.668C12.2333 9.668 12 9.289 12 8.531V5.118ZM17.169 10.999C17.1686 10.9993 17.1689 10.9999 17.1694 10.9998C17.5041 10.9624 17.8268 10.853 18.1153 10.6793C18.2085 10.6232 18.2974 10.5608 18.3814 10.4927C18.5423 10.3623 18.842 10.4677 18.842 10.6747C18.842 10.7908 18.9361 10.885 19.0523 10.885H19.5815C19.9899 10.885 20.321 10.5539 20.321 10.1455V3.5185C20.321 3.11009 19.9899 2.779 19.5815 2.779C19.1731 2.779 18.842 3.11009 18.842 3.5185V7.76597C18.842 8.54912 18.6991 9.669 17.916 9.669C17.7213 9.669 17.6076 9.55 17.575 9.312C17.5573 9.12288 17.5519 8.93281 17.559 8.743V3.518C17.559 3.10986 17.2281 2.779 16.82 2.779C16.4118 2.779 16.081 3.10986 16.081 3.518V9.179C16.064 9.58952 16.1078 10.0003 16.211 10.398C16.2781 10.5926 16.4099 10.7583 16.5844 10.8675C16.7585 10.9764 16.9647 11.0225 17.1686 10.9982C17.169 10.9981 17.1693 10.9987 17.169 10.999Z" fill="#1B1B1B"/>
</svg>
