<svg width="15" height="15" viewBox="0 0 15 15" fill="none" xmlns="http://www.w3.org/2000/svg">
<path d="M13.2911 13.1237H1.70799C1.4847 13.1237 1.27838 13.0046 1.16674 12.8112C1.0551 12.6178 1.0551 12.3796 1.16674 12.1862L6.95799 2.1862C7.06972 1.99314 7.27587 1.87427 7.49893 1.87427C7.72199 1.87427 7.92814 1.99314 8.03987 2.1862L13.8311 12.1862C13.9427 12.3795 13.9428 12.6176 13.8313 12.8109C13.7198 13.0043 13.5137 13.1235 13.2905 13.1237H13.2911ZM7.49987 3.7487L2.79299 11.8737H12.208L7.49987 3.7487ZM8.12174 9.37432H6.87174V6.2487H8.12174V9.37432Z" fill="#334238"/>
<path d="M6.87487 9.99995H8.12487V11.2499H6.87487V9.99995Z" fill="#334238"/>
</svg>
