<svg width="20" height="20" viewBox="0 0 20 20" fill="none" xmlns="http://www.w3.org/2000/svg">
<path d="M14.1667 18.3334H5.83333C4.91286 18.3334 4.16667 17.5872 4.16667 16.6667V5.83335H2.5V4.16669H5.83333V3.33335C5.83333 2.41288 6.57953 1.66669 7.5 1.66669H12.5C13.4205 1.66669 14.1667 2.41288 14.1667 3.33335V4.16669H17.5V5.83335H15.8333V16.6667C15.8333 17.5872 15.0871 18.3334 14.1667 18.3334ZM5.83333 5.83335V16.6667H14.1667V5.83335H5.83333ZM7.5 3.33335V4.16669H12.5V3.33335H7.5ZM12.5 15H10.8333V7.50002H12.5V15ZM9.16667 15H7.5V7.50002H9.16667V15Z" fill="#334238"/>
</svg>
